<svg id="Layer_1" data-name="Layer 1" xmlns="http://www.w3.org/2000/svg" xmlns:xlink="http://www.w3.org/1999/xlink" viewBox="0 0 360 116"><defs><style>.cls-1,.cls-2{fill:#0625a6;}.cls-2{stroke:#0625a6;stroke-miterlimit:10;}.cls-3{fill:url(#linear-gradient);}.cls-4{fill:url(#linear-gradient-2);}.cls-5{fill:url(#linear-gradient-3);}.cls-6{fill:url(#linear-gradient-4);}.cls-7{fill:url(#radial-gradient);}</style><linearGradient id="linear-gradient" x1="7.16" y1="68.57" x2="84.38" y2="68.57" gradientUnits="userSpaceOnUse"><stop offset="0.11" stop-color="#d2eefa"/><stop offset="0.49" stop-color="#c0adfd"/><stop offset="0.58" stop-color="#be93fd"/><stop offset="0.78" stop-color="#bb4ffd"/><stop offset="1" stop-color="#b600fd"/></linearGradient><linearGradient id="linear-gradient-2" x1="63.76" y1="106.12" x2="63.76" y2="28.46" gradientUnits="userSpaceOnUse"><stop offset="0" stop-color="#d4e6fd"/><stop offset="0.21" stop-color="#9ed2fd"/><stop offset="0.53" stop-color="#4db5fd"/><stop offset="1" stop-color="#695aff"/></linearGradient><linearGradient id="linear-gradient-3" x1="47.31" y1="9.88" x2="47.31" y2="87.1" gradientUnits="userSpaceOnUse"><stop offset="0" stop-color="#a9e9ff"/><stop offset="0.16" stop-color="#a0d8ff"/><stop offset="0.47" stop-color="#89acfe"/><stop offset="0.91" stop-color="#6365fd"/><stop offset="1" stop-color="#5b56fd"/></linearGradient><linearGradient id="linear-gradient-4" x1="25.9" y1="52.5" x2="103.51" y2="52.5" gradientUnits="userSpaceOnUse"><stop offset="0.11" stop-color="#c8eaff"/><stop offset="0.34" stop-color="#73c9fe"/><stop offset="0.57" stop-color="#21a9fd"/><stop offset="0.6" stop-color="#289ffd"/><stop offset="0.71" stop-color="#407efd"/><stop offset="0.82" stop-color="#5166fd"/><stop offset="0.92" stop-color="#5b57fd"/><stop offset="1" stop-color="#5f52fd"/></linearGradient><radialGradient id="radial-gradient" cx="55.63" cy="57.6" r="19.74" gradientUnits="userSpaceOnUse"><stop offset="0.36" stop-color="#fff"/><stop offset="0.48" stop-color="#fff"/><stop offset="1" stop-color="#fff" stop-opacity="0"/></radialGradient></defs><path class="cls-1" d="M182,47.94V42.71h1.15v5.23Z"/><path class="cls-1" d="M190.33,47.94l-2.53-3.32v3.32h-1.14V42.71h1.06l2.45,3.22V42.71h1.13v5.23Z"/><path class="cls-1" d="M197.12,43.77v4.17H196V43.77h-1.59V42.71h4.33v1.06Z"/><path class="cls-1" d="M201.79,47.94V42.71h4v1h-2.8V44.8h2.46v1h-2.46v1.1h2.83v1Z"/><path class="cls-1" d="M212.17,47.94l-1.12-1.67h-.91v1.67H209V42.71h2.38c1.24,0,2,.65,2,1.73h0a1.61,1.61,0,0,1-1.13,1.62l1.28,1.87Zm0-3.44c0-.49-.34-.75-.9-.75h-1.15v1.5h1.17c.56,0,.88-.3.88-.74Z"/><path class="cls-1" d="M220.26,47.94l-2.53-3.32v3.32h-1.14V42.71h1.06l2.45,3.22V42.71h1.14v5.23Z"/><path class="cls-1" d="M228.58,47.94l-.48-1.17h-2.21l-.48,1.17h-1.17l2.24-5.26h1.06l2.24,5.26ZM227,44.06l-.7,1.69h1.39Z"/><path class="cls-1" d="M234.48,43.77v4.17h-1.15V43.77h-1.59V42.71h4.33v1.06Z"/><path class="cls-1" d="M239.2,47.94V42.71h1.15v5.23Z"/><path class="cls-1" d="M246.39,48a2.68,2.68,0,0,1-2.77-2.69h0a2.71,2.71,0,0,1,2.79-2.71,2.68,2.68,0,0,1,2.77,2.69v0A2.7,2.7,0,0,1,246.39,48Zm1.59-2.7a1.6,1.6,0,0,0-1.59-1.65,1.57,1.57,0,0,0-1.56,1.63v0A1.58,1.58,0,0,0,246.41,47,1.56,1.56,0,0,0,248,45.34Z"/><path class="cls-1" d="M256.07,47.94l-2.53-3.32v3.32H252.4V42.71h1.06l2.45,3.22V42.71h1.14v5.23Z"/><path class="cls-1" d="M264.39,47.94l-.48-1.17H261.7l-.48,1.17h-1.17l2.24-5.26h1.06l2.24,5.26Zm-1.58-3.88-.7,1.69h1.39Z"/><path class="cls-1" d="M268.6,47.94V42.71h1.15V46.9h2.6v1Z"/><path class="cls-1" d="M185.38,60.57h-3.32v-7h3.24c1.42,0,2.29.71,2.29,1.8v0a1.59,1.59,0,0,1-.91,1.5,1.71,1.71,0,0,1,1.3,1.72v0C188,59.94,187,60.57,185.38,60.57Zm.69-4.9c0-.46-.36-.71-1-.71h-1.51v1.47H185c.67,0,1.1-.22,1.1-.74Zm.39,2.79c0-.47-.35-.76-1.13-.76h-1.77v1.53h1.82c.67,0,1.08-.24,1.08-.75Z"/><path class="cls-1" d="M195.26,60.57l-1.49-2.22h-1.2v2.22H191v-7h3.19c1.64,0,2.62.87,2.62,2.3v0a2.16,2.16,0,0,1-1.49,2.16l1.7,2.48Zm0-4.58c0-.66-.46-1-1.2-1h-1.52v2h1.55c.74,0,1.17-.39,1.17-1Z"/><path class="cls-1" d="M200,60.57v-7h5.26V55h-3.73v1.41h3.28v1.36h-3.28v1.46h3.78v1.36Z"/><path class="cls-1" d="M213.65,60.57,213,59h-2.94l-.64,1.56h-1.56l3-7h1.41l3,7Zm-2.11-5.17-.92,2.26h1.85Z"/><path class="cls-1" d="M220.37,55v5.54h-1.53V55h-2.12V53.61h5.77V55Z"/><path class="cls-1" d="M229.81,60.57V57.78H227v2.79h-1.54v-7H227v2.76h2.82V53.61h1.53v7Z"/><path class="cls-1" d="M242.45,60.62h-1.33l-1.57-4.55L238,60.62h-1.34l-2.37-7h1.64l1.44,4.72,1.56-4.74h1.31l1.56,4.74,1.45-4.72h1.6Z"/><path class="cls-1" d="M250.74,60.69a3.57,3.57,0,0,1-3.69-3.58v0a3.7,3.7,0,0,1,7.39,0v0A3.6,3.6,0,0,1,250.74,60.69Zm2.1-3.6a2.11,2.11,0,0,0-2.1-2.18,2.07,2.07,0,0,0-2.09,2.16v0a2.11,2.11,0,0,0,2.11,2.19,2.07,2.07,0,0,0,2.08-2.17Z"/><path class="cls-1" d="M261.82,60.57l-1.49-2.22h-1.2v2.22H257.6v-7h3.18c1.64,0,2.63.87,2.63,2.3v0a2.17,2.17,0,0,1-1.5,2.16l1.7,2.48Zm0-4.58c0-.66-.45-1-1.2-1h-1.52v2h1.55c.75,0,1.17-.39,1.17-1Z"/><path class="cls-1" d="M271.07,60.57l-2.15-3-.81.84v2.12h-1.53v-7h1.53v3l2.82-3h1.85l-2.83,3,3,4Z"/><path class="cls-1" d="M183.6,67.64v1.48h3.32v1.39H183.6v2.7h-1.54v-7h5.3v1.39Z"/><path class="cls-1" d="M194.34,73.33a3.57,3.57,0,0,1-3.69-3.58v0a3.7,3.7,0,0,1,7.4,0v0A3.6,3.6,0,0,1,194.34,73.33Zm2.1-3.6a2.11,2.11,0,0,0-2.1-2.19,2.08,2.08,0,0,0-2.09,2.17v0a2.12,2.12,0,0,0,2.11,2.19,2.08,2.08,0,0,0,2.08-2.17Z"/><path class="cls-1" d="M204.68,73.32a2.77,2.77,0,0,1-3-3.1v-4h1.53v3.94c0,1.13.56,1.72,1.5,1.72s1.5-.57,1.5-1.67v-4h1.53v3.93A2.8,2.8,0,0,1,204.68,73.32Z"/><path class="cls-1" d="M216.54,73.21l-3.37-4.43v4.43h-1.51v-7h1.41l3.26,4.28V66.25h1.52v7Z"/><path class="cls-1" d="M224.8,73.21h-2.72v-7h2.72a3.47,3.47,0,0,1,3.7,3.46v0A3.48,3.48,0,0,1,224.8,73.21Zm2.1-3.48a2,2,0,0,0-2.1-2.1h-1.19v4.2h1.19a2,2,0,0,0,2.1-2.08Z"/><path class="cls-1" d="M236.91,73.21l-.63-1.56h-2.95l-.64,1.56h-1.56l3-7h1.41l3,7ZM234.8,68l-.92,2.25h1.85Z"/><path class="cls-1" d="M244.21,67.66v5.55h-1.53V67.66h-2.12V66.25h5.77v1.41Z"/><path class="cls-1" d="M249.94,73.21v-7h1.53v7Z"/><path class="cls-1" d="M259,73.33a3.57,3.57,0,0,1-3.69-3.58v0a3.7,3.7,0,0,1,7.4,0v0A3.6,3.6,0,0,1,259,73.33Zm2.11-3.6A2.12,2.12,0,0,0,259,67.54a2.08,2.08,0,0,0-2.09,2.17v0A2.12,2.12,0,0,0,259,71.92a2.09,2.09,0,0,0,2.09-2.17Z"/><path class="cls-1" d="M271.28,73.21l-3.37-4.43v4.43H266.4v-7h1.41l3.26,4.28V66.25h1.51v7Z"/><path class="cls-2" d="M121.12,56.89a.82.82,0,0,0-.93-.92h-1.68V51.43h5.09c2,0,2.82.88,2.82,2.86V67.45a.83.83,0,0,0,.92.92H129v4.5h-5.09c-2,0-2.81-.84-2.81-2.86ZM121.37,43H126v4.92h-4.62Z"/><path class="cls-2" d="M134.2,48.48a.82.82,0,0,0-.93-.92h-1.68V43h5.09c2,0,2.86.88,2.86,2.86V52.1c0,1-.08,1.81-.08,1.81h.08a7.62,7.62,0,0,1,6.44-3c5.8,0,9.5,4.59,9.5,11.23,0,6.81-4.16,11.23-9.84,11.23a7.64,7.64,0,0,1-6.39-3h-.09a10.49,10.49,0,0,1,.09,1.43v1.09H134.2Zm10.51,20.4c2.91,0,5.39-2.4,5.39-6.65,0-4.08-2.19-6.72-5.34-6.72-2.78,0-5.39,2-5.39,6.76C139.37,65.6,141.14,68.88,144.71,68.88Z"/><path class="cls-2" d="M160.36,55.67h-2.65V51.43h2.65V50.8c0-7,5.76-7.95,8.75-7.95a11.24,11.24,0,0,1,1.81.13v4.54a6.28,6.28,0,0,0-1.09-.09c-1.52,0-4.13.38-4.13,3.49v.51h4.58v4.24H165.7v17.2h-5.34Z"/><path class="cls-3" d="M56.49,57.21l-.07.15a1.29,1.29,0,0,1-.29.44,2.76,2.76,0,0,1-.78.48,10.16,10.16,0,0,0-1.19.54c-.49,0-1,.11-1.55.19a4.39,4.39,0,0,1-2-.08,2.51,2.51,0,0,1-1-.69,6.36,6.36,0,0,1-.83-1l-.38-.53c-.1-.2-.2-.41-.31-.61a8.65,8.65,0,0,1-.53-1.32,5.83,5.83,0,0,1-.18-.72,6.63,6.63,0,0,1-.15-.75,11.61,11.61,0,0,1-.13-1.58,7.69,7.69,0,0,1,0-.83c0-.28,0-.58.06-.87a1.9,1.9,0,0,1,0-.25l.08-.25c0-.14.09-.29.14-.44a6.34,6.34,0,0,1,.3-.83,11.41,11.41,0,0,1,2-3.28A16.67,16.67,0,0,1,51,43.59l.72-.68.4-.35a2.53,2.53,0,0,1,.26-.22l.29-.16a18.67,18.67,0,0,1,4-1.84,17.68,17.68,0,0,1,4.66-.78h1.22l1.26.09a5.21,5.21,0,0,1,.75.13l.57.12,1.16.27a22.22,22.22,0,0,1,4.9,1.71,23.54,23.54,0,0,1,8.4,7.3c.28.39.57.78.82,1.19l.4.61.24.38a4.22,4.22,0,0,1,.25.53c.33.74.73,1.55,1.13,2.42a16.11,16.11,0,0,1,1.69,6.36c0-.09,0-.2,0-.3a32.4,32.4,0,0,1,0,8.74c-.09.75-.26,1.49-.4,2.24-.09.37-.18.74-.28,1.12s-.19.74-.32,1.13-.25.77-.38,1.15-.3.7-.45,1.06c-.32.69-.62,1.4-.95,2.09-2.07,5.87-8.13,11.32-8.13,11.32-.32.31-1.75,1.53-2.15,1.81a33.71,33.71,0,0,1-7.41,3.92l-.42.19-.48.14c-.31.09-.65.19-1,.26A21.79,21.79,0,0,1,55.37,97l-1.3.26-.66.13c-.17,0-.33.07-.5.09H51.18l-2.37,0a41.21,41.21,0,0,1-5-.17,32.6,32.6,0,0,1-4.94-1A40.89,40.89,0,0,1,30,92.91,42.36,42.36,0,0,1,16.74,81.79a44.84,44.84,0,0,1-9.5-25,42.74,42.74,0,0,1,.41-9.07c.09-.61.18-1.19.3-1.73s.22-1,.31-1.51c.25-.92.44-1.7.63-2.32.39-1.23.61-1.88.61-1.88l-.35,1.94c-.11.64-.19,1.43-.32,2.36,0,.47-.08,1-.12,1.51s-.08,1.11-.09,1.72a44.32,44.32,0,0,0,.58,8.76,45.24,45.24,0,0,0,3.31,11A43.44,43.44,0,0,0,20,79a39.52,39.52,0,0,0,12.37,9.18,38.5,38.5,0,0,0,7.86,2.68,29.21,29.21,0,0,0,4.09.7,38.94,38.94,0,0,0,4.33,0L51,91.5l1.35-.06.51-.12L54,91.09c.36-.08.75-.2,1.12-.3,6-.82,11.26-4.33,11.57-4.41a14.08,14.08,0,0,0,2.1-1.57l.67-.7.71-.79.78-.86.43-.45.11-.11s.1-.1.06-.07,0,0,0,0l.06-.07a41.2,41.2,0,0,0,4.37-6.62c.28-.58.57-1.16.85-1.73.13-.29.29-.58.4-.86l.29-.83c.11-.27.19-.56.28-.86L78,70c.13-.6.29-1.19.38-1.8A28.37,28.37,0,0,0,78.69,61l0-.22v-.08a11.07,11.07,0,0,0-1-4.33c-.32-.8-.68-1.63-1-2.55a1.26,1.26,0,0,0-.14-.27l-.3-.53c-.19-.36-.42-.69-.63-1a19.59,19.59,0,0,0-6.38-6.37,19.16,19.16,0,0,0-4-1.71c-.35-.12-.7-.23-1.07-.33l-.54-.17a3,3,0,0,0-.35-.09l-1-.15-1-.08a15,15,0,0,0-3.82.3A16.57,16.57,0,0,0,54,44.57a1,1,0,0,0-.27.14l-.34.25c-.26.19-.5.37-.73.56a16.14,16.14,0,0,0-1.3,1.12,9.24,9.24,0,0,0-1.87,2.5,7.37,7.37,0,0,0-.34.69l-.14.31a.92.92,0,0,0-.09.28c0,.23-.09.46-.13.69s0,.48-.08.71a12.92,12.92,0,0,0,0,1.38c0,.22,0,.43.06.65a6.21,6.21,0,0,0,.08.64,7.19,7.19,0,0,0,.33,1.17c.06.19.13.37.2.55l.27.5a5.26,5.26,0,0,0,.58.87,1.73,1.73,0,0,0,.68.61,2.54,2.54,0,0,0,.83.24,7.68,7.68,0,0,0,.84,0c.57,0,1.1,0,1.51,0,.42-.17.86-.28,1.19-.38a2.74,2.74,0,0,0,.8-.36,1.06,1.06,0,0,0,.33-.38Z"/><path class="cls-4" d="M55.34,56.86a.93.93,0,0,1,.54.42,4.24,4.24,0,0,1,.38.77,3.07,3.07,0,0,0,.51,1l0,0,0,0a4.93,4.93,0,0,1,.24,2,4.77,4.77,0,0,1-1,2.35,7.68,7.68,0,0,1-2.3,2,8.56,8.56,0,0,1-1.56.72,7.61,7.61,0,0,1-1.84.42,9.06,9.06,0,0,1-2,0A14.54,14.54,0,0,1,42,63.75a1.41,1.41,0,0,1-.31-.21l-.26-.21a11,11,0,0,1-1.81-1.8c-.14-.17-.28-.34-.41-.52s-.24-.38-.36-.56c-1.64-2.27-2-5.38-2.29-6.84,0-.32-.07-.65-.1-1l-.05-.5c0-.17,0-.33,0-.5A18.8,18.8,0,0,1,39.81,39.8a4.07,4.07,0,0,1,.34-.45l.35-.42.36-.43,0,0,0,0,0-.06.09-.11.18-.22a17,17,0,0,1,1.51-1.74l.8-.81c.28-.27.55-.49.83-.73l.84-.73.87-.7.44-.35a4.58,4.58,0,0,1,.46-.34l1.06-.69c.7-.4,1.41-.8,2.14-1.13a26.41,26.41,0,0,1,4.57-1.62c.39-.11.78-.18,1.17-.28s.79-.17,1.19-.24l.62-.11a44.75,44.75,0,0,1,7.58-.16,29.42,29.42,0,0,1,6.48,1.26,33.61,33.61,0,0,1,4.26,1.81c.4.22.83.43,1.2.67.74.48,1.51,1,2.2,1.45s1.38,1,2.05,1.48l.32.23a3.7,3.7,0,0,1,.48.42l.43.41.88.83A38.18,38.18,0,0,1,87.27,41a14.44,14.44,0,0,1,.89,1.21l.76,1.16.7,1.08L90,45c.12.19.24.4.35.6l1,1.76c.31.62.59,1.25.88,1.88a13.48,13.48,0,0,1,.75,2l.34,1a7.12,7.12,0,0,1,.28,1c.28,1.27.54,2.45.78,3.68.12.62.24,1.23.33,1.87l.15.94.12,1c.08.64.12,1.3.15,2a18.46,18.46,0,0,1,0,2c0,.66-.08,1.32-.12,2l-.05.55-.1.56c0,.25-.1.48-.14.76-.17,1-.29,2.19-.51,3.42,0,.29-.1.61-.17.92s-.12.62-.22,1-.17.65-.26,1l-.33.9,0,.09h0v-.08a41.94,41.94,0,0,1-7.58,14.06,43.86,43.86,0,0,1-10.88,9.51,45.64,45.64,0,0,1-5.86,3.06c-1,.44-2,.78-2.9,1.16l-1.45.48c-.48.16-.95.31-1.43.43a47.45,47.45,0,0,1-10.68,1.77,43.7,43.7,0,0,1-8.72-.48c-.64-.07-1.23-.22-1.81-.32l-.85-.16-.81-.2-1.5-.38-1.33-.41c-.85-.24-1.57-.54-2.21-.77a16.86,16.86,0,0,1-1.56-.64c-.84-.36-1.27-.56-1.27-.56l1.33.39c.43.13,1,.29,1.62.43s1.39.35,2.25.49a44.92,44.92,0,0,0,14.65.33,47.22,47.22,0,0,0,9.87-2.56c.44-.15.87-.33,1.3-.52l1.3-.55c.85-.42,1.74-.8,2.6-1.28a44.76,44.76,0,0,0,5.14-3.19,41.3,41.3,0,0,0,9.23-9.12A38.28,38.28,0,0,0,87.74,74l.06-.18,0-.1,0,0v0h0l0,.09.22-.68.16-.66c.05-.21.08-.46.13-.69s.08-.48.11-.75c.15-1,.24-2.12.4-3.36,0-.3.09-.63.14-1l0-.24v-.06s0,0,0,0V66c0-.51.08-1,.06-1.52s0-1-.06-1.54-.08-1-.16-1.58l-.11-.8-.15-.83c-.08-.54-.2-1.1-.32-1.66-.23-1.13-.51-2.31-.76-3.41a4.79,4.79,0,0,0-.24-.78l-.26-.72a8.81,8.81,0,0,0-.57-1.46l-.69-1.47L85,48.79c-.1-.17-.18-.34-.29-.51l-.34-.53-.68-1-.62-1a8.44,8.44,0,0,0-.61-.83,33,33,0,0,0-3.17-3.3l-.92-.89-.45-.45h0l-.06,0-.12-.09c-.65-.49-1.29-1-1.91-1.43s-1.24-.86-1.85-1.28c-.31-.21-.61-.35-.9-.53l-.23-.13-.14-.09,0,0h0l-.14,0c-1.51-.52-3-1-4.41-1.45-.71-.19-1.43-.44-2.13-.58l-1-.24-.26-.06-.08,0H64.4a30.18,30.18,0,0,0-5.87-.12h-.2l-.48.07c-.34,0-.68.09-1,.15s-.68.11-1,.19a21.92,21.92,0,0,0-3.76,1.12c-.59.22-1.15.51-1.7.78l-.75.42a2.7,2.7,0,0,0-.4.26l-.4.29L48,38l-.77.59c-.25.2-.53.39-.75.59l-.69.61A11.06,11.06,0,0,0,44.58,41l-.15.16-.07.07,0,0-.15.18-.31.32a6.71,6.71,0,0,0-.58.64,16.28,16.28,0,0,0-3.41,9.35c0,.13,0,.25,0,.38v.37c0,.26,0,.5,0,.75,0,.5.13,1,.18,1.48l0,.12a12.65,12.65,0,0,0,1.16,4.23c.08.15.14.31.23.45l.28.43a6.6,6.6,0,0,0,.59.8,7.72,7.72,0,0,0,.68.72l.16.16a.53.53,0,0,0,.14.12l.42.29a26.88,26.88,0,0,0,3.37,2.14,7.4,7.4,0,0,0,3.23.82,6,6,0,0,0,1.53-.17,7.07,7.07,0,0,0,1.41-.47,6.73,6.73,0,0,0,2.17-1.49A4.09,4.09,0,0,0,56.49,61a4.38,4.38,0,0,0,0-1.77.25.25,0,0,1,0,.07,3.23,3.23,0,0,1-.46-1.16,4,4,0,0,0-.27-.79A.92.92,0,0,0,55.34,56.86Z"/><path class="cls-5" d="M79.22,14.5l-.46-.22L78.2,14c-.23-.11-.5-.19-.81-.31a24,24,0,0,0-5.54-1.14c-1.22-.13-2.6-.24-4.11-.37S64.62,12,62.9,12c-.44,0-.87,0-1.31,0l-.67,0-.67.06-.67.07-.68.11c-.45.06-.93.16-1.41.26-1,.21-2,.38-3,.66s-2,.53-3.08.85l-3.27,1-.84.25-.21.06-.11.05-.36.15c-.52.22-1.05.41-1.57.67a54,54,0,0,0-6.34,3.58c-1.08.69-2.17,1.42-3.29,2.17l-.1.07-.08.06a.17.17,0,0,0-.07.06l-.33.29-.73.64c-.51.41-.95.89-1.43,1.34a33.82,33.82,0,0,0-5,6.19c-.36.57-.69,1.17-1,1.76l-1,1.92c-.3.63-.6,1.27-.91,1.91l-.23.48-.19.49c-.12.34-.24.67-.37,1l-.37,1-.33,1.06c-.21.71-.44,1.41-.63,2.14-.1.36-.2.72-.29,1.08a8.26,8.26,0,0,0-.27,1.06l-.18,1c-.06.34-.1.72-.15,1.08A30.64,30.64,0,0,0,21.51,51c0,.75,0,1.51.07,2.27s.12,1.55.21,2.3a31.81,31.81,0,0,0,2.38,8.72l.36.83v0h0l0,0s1.38,4.34,7,9.48L33,75.74a15.43,15.43,0,0,0,1.47,1c.51.33,1,.68,1.51,1l1.57.89c.26.14.51.3.78.43l.81.39,1.45.71,1.57.49c.54.18,1.1.26,1.64.4.28.06.55.14.82.19l.83.12c8.72,1.41,17.65-2.36,21.37-8.59a23.6,23.6,0,0,0,2.78-6.26,2.22,2.22,0,0,0,.14-.55,3.27,3.27,0,0,0,.1-.56,9.76,9.76,0,0,0,0-2.36c-.06-.8-.19-1.64-.32-2.48l-.05-.31,0-.16,0-.09c0-.14-.08-.32-.13-.5A8.62,8.62,0,0,0,69,58.47a10.91,10.91,0,0,0-2.2-3.56,5.88,5.88,0,0,0-.7-.71,7.37,7.37,0,0,0-.74-.64L64.56,53l-.79-.46a6.07,6.07,0,0,0-3.15-.79,6.47,6.47,0,0,0-4.75,2l0,0a2.81,2.81,0,0,0-.59,1.91,1.47,1.47,0,0,0,.05.42c0,.13,0,.27.08.39a5.93,5.93,0,0,0,.22.64c.09.18.16.35.22.48l.18.34c.09.18.14.26.14.26L56,58l-.22-.31c-.08-.13-.17-.29-.28-.46A4.53,4.53,0,0,1,55,55.7a3.22,3.22,0,0,1,.44-2.27v0a7.31,7.31,0,0,1,5.12-2.94,8.78,8.78,0,0,1,1.92,0,9.13,9.13,0,0,1,1,.19l.52.15.49.21,1,.43,1,.56a6.5,6.5,0,0,1,.94.64,7.25,7.25,0,0,1,.91.75,13,13,0,0,1,3.07,4,9.17,9.17,0,0,1,.55,1.24c.08.22.17.42.26.69s.11.46.17.68c.2.83.43,1.7.59,2.65a13.73,13.73,0,0,1,.2,3,6,6,0,0,1-.08.82,3.8,3.8,0,0,1-.14.82,23.67,23.67,0,0,1-2.6,7.38A20.18,20.18,0,0,1,66,80.3,23.45,23.45,0,0,1,60,84.39a27.89,27.89,0,0,1-7.28,2.31,28.26,28.26,0,0,1-4,.4,31.91,31.91,0,0,1-4-.19l-1-.11c-.33,0-.67-.12-1-.18-.67-.14-1.36-.23-2-.41l-2.05-.57a1.48,1.48,0,0,1-.35-.13L38,85.38l-.47-.2-.92-.42-.93-.41c-.31-.14-.61-.32-.91-.47l-1.83-1c-.6-.34-1.19-.73-1.78-1.1a18.14,18.14,0,0,1-1.77-1.18l-1.73-1.3a8.23,8.23,0,0,1-.86-.75l-.85-.79a29,29,0,0,1-2.87-3.49c-5.15-5.73-7-14.43-7.42-18-.09-.9-.15-1.77-.19-2.63s-.07-1.75,0-2.63a35,35,0,0,1,.43-5.23c.07-.43.13-.85.21-1.29s.19-.88.28-1.32A12.09,12.09,0,0,1,16.68,42c.12-.4.25-.79.37-1.19.23-.79.51-1.56.78-2.33.13-.39.26-.77.4-1.15s.31-.77.47-1.15.33-.77.48-1.14l.25-.57.28-.54,1.13-2.14,1.16-2c.44-.68.86-1.35,1.31-2a38.38,38.38,0,0,1,6.16-6.79c.57-.47,1.11-1,1.69-1.39l.86-.66.46-.35a1.83,1.83,0,0,1,.34-.23l.25-.15c1.17-.68,2.34-1.35,3.51-2a52.41,52.41,0,0,1,7.11-3.33c.59-.24,1.21-.41,1.8-.61l.48-.15a2.07,2.07,0,0,1,.32-.09l.21,0,.86-.18,3.36-.69c1.09-.23,2.19-.41,3.26-.59s2.12-.28,3.13-.4c.51-.06,1-.11,1.53-.13l.76,0h1.49l.71,0c.48,0,.94.06,1.39.11,1.8.18,3.45.46,4.95.74s2.85.56,4.08.84a22.91,22.91,0,0,1,5.48,1.86c.29.15.56.27.77.41l.53.34Z"/><path class="cls-6" d="M96.49,86.87s.3-.65.89-1.87c.26-.63.54-1.42.89-2.35s.67-2,1.07-3.26l.15-.47.07-.21c0-.07,0-.15,0-.22.06-.33.13-.67.2-1,.13-.7.32-1.42.42-2.19s.23-1.57.35-2.4.15-1.71.24-2.6a51.58,51.58,0,0,0-.58-12.11,43.87,43.87,0,0,0-4.74-13.6c-.32-.57-.67-1.11-1-1.67L94,42.06c-.18-.28-.39-.53-.57-.81l-1.17-1.62-1.31-1.55-.66-.79-.72-.73-.73-.75-.36-.37-.15-.15,0,0h0l-.45-.34-.49-.4c-.33-.27-.64-.54-.92-.79-.6-.53-1.13-1-1.66-1.47L84,31.61c-.27-.18-.52-.38-.8-.56l-.87-.53-1-.57c-.65-.4-1.31-.73-2-1.08s-1.34-.66-2-1A39,39,0,0,0,68.7,25a35.67,35.67,0,0,0-9.25-.69c-.78.09-1.57.12-2.35.24s-1.57.21-2.35.4l-1.17.25c-.38.09-.75.2-1.13.3s-.78.19-1.13.33l-1.09.4a33.18,33.18,0,0,0-6.71,3.62c-.54.35-1,.75-1.55,1.13s-1,.84-1.57,1.26-.9.73-1.33,1.13-.81.81-1.2,1.28l-.59.71c-.2.23-.4.47-.6.74l-.6.76-.14.18h0l-.05.1-.13.21c-.68,1.15-1.29,2.24-1.87,3.32a26.94,26.94,0,0,0-1.43,3.2,26.05,26.05,0,0,0-.68,13.33,19.7,19.7,0,0,0,.84,3c.18.49.39,1,.59,1.45s.45,1,.7,1.4.49.92.79,1.36l.41.66a1.13,1.13,0,0,0,.09.15l0,0,.14.15c.76.8,1.48,1.56,2.22,2.24.36.35.74.66,1.11,1s.74.61,1.14.86a19.1,19.1,0,0,0,5,2.42l.67.22.69.21a5.26,5.26,0,0,1,.56.17.9.9,0,0,0,.16,0h.34c1.06.09,2,.27,2.76.32a7.08,7.08,0,0,0,2.27-.19,13.75,13.75,0,0,0,2.26-.67,12.35,12.35,0,0,0,2-1,12,12,0,0,0,1.75-1.26,11.2,11.2,0,0,0,2.52-3.09c.15-.28.3-.55.42-.84l.17-.38c0-.12.06-.22.1-.39a10.81,10.81,0,0,0,.27-1.71,8.35,8.35,0,0,0,0-1.59,6.67,6.67,0,0,0-.35-1.4,5.57,5.57,0,0,0-1.42-2c-.37-.14-.79-.37-1.15-.54a10.57,10.57,0,0,0-1-.45,2.69,2.69,0,0,0-1.62-.14,2.13,2.13,0,0,0-.88.46l-.25.23.23-.26a2.23,2.23,0,0,1,.85-.6,2.9,2.9,0,0,1,1.77,0,9.84,9.84,0,0,1,1.11.34c.39.15.76.3,1.28.45a6.24,6.24,0,0,1,2,2.18,7.17,7.17,0,0,1,.6,1.59,9,9,0,0,1,.24,1.83,12.88,12.88,0,0,1-.08,2c0,.16,0,.37-.09.57s-.12.35-.17.53a10.37,10.37,0,0,1-.38,1,13.11,13.11,0,0,1-2.57,3.9,14.24,14.24,0,0,1-1.92,1.69,15.42,15.42,0,0,1-2.29,1.41,17.22,17.22,0,0,1-2.62,1c-.23.06-.44.14-.69.2l-.78.17-.8.11-.8,0c-1.06,0-2-.09-2.84-.09h-.38a2.55,2.55,0,0,1-.55,0l-.85-.18c-.47-.1-1-.21-1.48-.35A22.05,22.05,0,0,1,37.65,73a31.08,31.08,0,0,1-5.44-4.31l-.42-.39a.93.93,0,0,1-.22-.27l-.19-.26L30.85,67c-.36-.49-.67-1-1-1.54s-.63-1.08-.94-1.63-.57-1.14-.83-1.74a24.19,24.19,0,0,1-1.27-3.74c-.18-.64-.29-1.3-.41-2,0-.13-1.11-7.9,0-12.18A21.74,21.74,0,0,1,27,42.07a30.54,30.54,0,0,1,1.62-4c.61-1.25,1.27-2.48,1.92-3.64l.3-.55a4,4,0,0,1,.28-.4l.16-.22.62-.83c.39-.55.89-1.14,1.34-1.7s1-1.15,1.55-1.71,1.16-1,1.75-1.56,1.05-.89,1.63-1.34,1.16-.91,1.78-1.33a37.65,37.65,0,0,1,8-4.37l1.4-.5c.46-.18.93-.28,1.39-.41s.93-.26,1.4-.37l1.38-.29c.92-.21,1.86-.31,2.79-.45s1.86-.16,2.79-.25a40.46,40.46,0,0,1,10.88,1,43.67,43.67,0,0,1,9.8,3.59c.75.4,1.51.77,2.22,1.2s1.46.84,2.12,1.29l1,.65c.33.21.72.49,1.08.73s.71.55,1.06.82l1,.85c.6.57,1.16,1.13,1.67,1.63.26.26.51.5.76.72A3.6,3.6,0,0,0,91,31l.42.35.21.18a1.1,1.1,0,0,1,.15.16l.23.26.39.44.77.88.76.87.7.92c.45.62.92,1.22,1.35,1.84s.81,1.27,1.2,1.89c.19.32.41.62.58.95l.51,1c.34.65.69,1.27,1,1.92a45.33,45.33,0,0,1,4,15.15,51,51,0,0,1-.56,12.75c-.18.92-.34,1.8-.52,2.65s-.42,1.65-.62,2.42-.46,1.49-.66,2.19l-.33,1c0,.08-.05.17-.09.26l-.11.26c-.07.14-.14.29-.2.44L98.8,82.88c-.46.89-.84,1.64-1.18,2.24Z"/><path class="cls-7" d="M75.37,57.6A19.74,19.74,0,1,1,55.63,37.86,19.74,19.74,0,0,1,75.37,57.6Z"/></svg>